<svg height="141" viewBox="0 0 499 141" width="499" xmlns="http://www.w3.org/2000/svg"><g fill="none" fill-rule="evenodd" transform="translate(.75 1)"><g stroke="#141414"><g transform="translate(239.25)"><path d="m9 0v22" stroke-linecap="square"/><path d="m8.5 38.5v5" stroke-linecap="square"/><path d="m3 24h11v11h-11z" transform="matrix(.68199836 .7313537 -.7313537 .68199836 24.277948 3.164542)"/><path d="m4 17h9v9h-9z" transform="matrix(.68199836 .7313537 -.7313537 .68199836 18.427119 .620529)"/><path d="m5 34h7v7h-3.68143609-3.31856391z" transform="matrix(.68199836 .7313537 -.7313537 .68199836 30.128778 5.708555)"/></g><g transform="matrix(0 -1 1 0 44.810547 89.59375)"><path d="m8.5 23.5v5" stroke-linecap="square"/><path d="m3 9h11v11h-11z" transform="matrix(.68199836 .7313537 -.7313537 .68199836 13.307643 -1.605483)"/><path d="m4 2h9v9h-9z" transform="matrix(.68199836 .7313537 -.7313537 .68199836 7.456813 -4.149496)"/><path d="m5 19h7v7h-3.68143609-3.31856391z" transform="matrix(.68199836 .7313537 -.7313537 .68199836 19.158472 .93853)"/></g><path d="m20.4375 30.5625 192.3125-.0625" stroke-linecap="square"/><path d="m27.421875 123.515625 190.328125-.015625" stroke-linecap="square"/><path d="m32.421875 118.515625 191.328125-.015625" stroke-linecap="square"/><path d="m21.25 31v19" stroke-linecap="square"/><path d="m27 87.25.5 36.5" stroke-linecap="square"/><path d="m20.4825476 111-.2325476 17.250152" stroke-linecap="square" transform="matrix(.9998477 -.01745241 .01745241 .9998477 -2.084644 .37366)"/><path d="m52.5 81.25-52.5-.5" stroke-linecap="square"/><path d="m27 35.25.5 39.5" stroke-linecap="square"/><path d="m32.875 40.125-.25 78.25" stroke-linecap="square"/><path d="m32.375 40.625 191.375-.125" stroke-linecap="square"/><path d="m26.375 35.625 191.375-.125" stroke-linecap="square"/><path d="m19.375 128.375 193.375.125" stroke-linecap="square"/><g transform="matrix(0 1 -1 0 453.314453 69.53125)"><path d="m8.5 23.5v5" stroke-linecap="square"/><path d="m3 9h11v11h-11z" transform="matrix(.68199836 .7313537 -.7313537 .68199836 13.307643 -1.605483)"/><path d="m4 2h9v9h-9z" transform="matrix(.68199836 .7313537 -.7313537 .68199836 7.456813 -4.149496)"/><path d="m5 19h7v7h-3.68143609-3.31856391z" transform="matrix(.68199836 .7313537 -.7313537 .68199836 19.158472 .93853)"/></g><path d="m477.6875 128.5625-196.9375-.0625" stroke-linecap="square"/><path d="m470.703125 35.609375-196.953125-.109375" stroke-linecap="square"/><path d="m465.703125 40.609375-199.953125-.109375" stroke-linecap="square"/><path d="m476.875 128.125v-19" stroke-linecap="square"/><path d="m471.125 71.875-.5-36.5" stroke-linecap="square"/><path d="m477.792998 48.1257156-.068544-17.2515834" stroke-linecap="square"/><path d="m445.625 77.875 52.5.5" stroke-linecap="square"/><path d="m471.125 123.875-.5-39.5" stroke-linecap="square"/><path d="m465.25 119 .25-78.25" stroke-linecap="square"/><path d="m465.75 118.5h-200" stroke-linecap="square"/><path d="m471.75 123.5h-198" stroke-linecap="square"/><path d="m478.75 30.75-198 .75" stroke-linecap="square"/></g><text fill="#141414" font-family="BanglaSangamMN-Bold, Bangla Sangam MN" font-size="45" font-weight="bold" letter-spacing="1.60714286"><tspan x="112.25" y="90">Divine Cigars</tspan></text><g fill="#141414" font-family="BanglaSangamMN, Bangla Sangam MN" font-size="32" letter-spacing="1.14285714" transform="translate(228.25 104)"><text><tspan x="0" y="26">D</tspan></text><text><tspan x="9" y="35">C</tspan></text></g></g></svg>